<?xml version="1.0" encoding="UTF-8" standalone="no"?><!DOCTYPE svg PUBLIC "-//W3C//DTD SVG 1.1//EN" "http://www.w3.org/Graphics/SVG/1.1/DTD/svg11.dtd"><svg width="100%" height="100%" viewBox="0 0 3147 871" version="1.1" xmlns="http://www.w3.org/2000/svg" xmlns:xlink="http://www.w3.org/1999/xlink" xml:space="preserve" xmlns:serif="http://www.serif.com/" style="fill-rule:evenodd;clip-rule:evenodd;stroke-linejoin:round;stroke-miterlimit:2;"><g><g><path d="M707.061,868.27l-272.122,-767.951l-162.84,0l0.419,1.129l-272.518,769.067l156.238,-0l99.594,-293.882l16.972,-474.414l211.647,570.103l67.116,198.049l310.495,-0l-0,-770.052l-155.001,0l0,767.951Z" style="fill:url(#_Linear1);fill-rule:nonzero;"/></g><path d="M1032.42,227.025l-73.663,0l0,80.757l73.663,0l-0,332.192c-0,141.323 54.255,223.295 179.778,223.295c32.62,0 57.964,-3.616 57.964,-3.616l0,-84.387c0,0 -14.483,1.208 -26.551,1.208c-82.131,0 -115.943,-27.783 -115.943,-144.956l-0,-323.736l137.664,0l-0,-80.757l-137.664,0l-0,-131.626l-95.248,-0l-0,131.626Z" style="fill:#fff;fill-rule:nonzero;"/><path d="M1662.63,211.327c-95.347,-0 -165.35,57.872 -187.075,120.607l-0.099,-104.909l-94.042,0l0,627.791l95.248,0l0,-300.614c0.1,-134.115 42.343,-247.627 185.968,-247.627l-0,-95.248Z" style="fill:#fff;fill-rule:nonzero;"/><path d="M1727.99,661.679c0,122.037 101.288,208.836 239.02,208.836c84.572,-0 137.731,-31.338 170.346,-68.702l10.851,53.003l81.986,0l-0,-414.063c-0,-134.168 -67.518,-229.426 -239.02,-229.426c-106.319,-0 -189.635,42.189 -231.835,68.709l38.583,70.063c44.647,-26.592 107.472,-54.393 184.795,-54.393c93.029,0 152.229,50.767 152.229,139.004l-0,77.192c-25.371,-26.515 -85.78,-56.644 -165.519,-56.644c-141.356,-0 -241.436,86.801 -241.436,206.421Zm96.456,-1.208c-0,-73.705 61.616,-129.286 157.062,-129.286c94.237,-0 157.054,50.748 157.054,129.286c-0,76.122 -64.025,130.494 -155.846,130.494c-96.654,0 -158.27,-57.997 -158.27,-130.494Z" style="fill:#fff;fill-rule:nonzero;"/><path d="M2384.91,854.816l95.248,0l-0,-627.791l-95.248,0l-0,627.791Zm-18.114,-789.682c0,37.393 28.949,66.341 65.135,66.341c37.392,0 66.341,-28.948 66.341,-66.341c-0,-36.186 -28.949,-65.134 -66.341,-65.134c-36.186,-0 -65.135,28.948 -65.135,65.134Z" style="fill:#fff;fill-rule:nonzero;"/><path d="M2925.85,211.327c-86.988,-0 -157.062,49.425 -187.264,106.116l-0,-90.418l-94.042,0l-0,627.791l95.248,0l-0,-381.595c-0,-103.852 66.449,-175.1 163.103,-175.1c85.78,0 148.603,60.38 148.603,160.609l0,396.086l95.248,0l0,-392.464c0,-142.494 -74.751,-251.025 -220.896,-251.025Z" style="fill:#fff;fill-rule:nonzero;"/></g><defs><linearGradient id="_Linear1" x1="0" y1="0" x2="1" y2="0" gradientUnits="userSpaceOnUse" gradientTransform="matrix(862.062,0,0,770.195,0,485.417)"><stop offset="0" style="stop-color:#5e17d8;stop-opacity:1"/><stop offset="1" style="stop-color:#25caeb;stop-opacity:1"/></linearGradient></defs></svg>