<svg width="100%" height="100%" viewBox="0 0 3197 787" version="1.1" xmlns="http://www.w3.org/2000/svg" xmlns:xlink="http://www.w3.org/1999/xlink" xml:space="preserve" xmlns:serif="http://www.serif.com/" style="fill-rule:evenodd;clip-rule:evenodd;stroke-linejoin:round;stroke-miterlimit:2;"><g><g><path d="M707.061,767.951l-272.122,-767.951l-162.84,0l0.419,1.129l-272.518,769.066l156.238,0l99.594,-293.882l16.972,-474.413l211.647,570.103l67.116,198.049l310.495,-0l-0,-770.052l-155.001,0l0,767.951Z" style="fill-rule:nonzero;"/></g><path d="M1082.42,143.372l-73.663,0l0,80.757l73.663,0l-0,332.192c-0,141.323 54.255,223.296 179.778,223.296c32.62,-0 57.964,-3.617 57.964,-3.617l0,-84.386c0,-0 -14.483,1.208 -26.551,1.208c-82.131,-0 -115.943,-27.784 -115.943,-144.956l-0,-323.737l137.664,0l-0,-80.757l-137.664,0l-0,-131.626l-95.248,0l-0,131.626Z" style="fill-rule:nonzero;"/><path d="M1712.63,127.674c-95.347,-0 -165.35,57.872 -187.075,120.607l-0.099,-104.909l-94.042,0l0,627.791l95.248,0l0,-300.614c0.1,-134.115 42.343,-247.627 185.968,-247.627l-0,-95.248Z" style="fill-rule:nonzero;"/><path d="M1777.99,578.027c0,122.036 101.288,208.835 239.02,208.835c84.572,-0 137.731,-31.338 170.346,-68.702l10.851,53.003l81.986,0l-0,-414.062c-0,-134.169 -67.518,-229.427 -239.02,-229.427c-106.319,-0 -189.635,42.19 -231.835,68.709l38.583,70.063c44.647,-26.592 107.472,-54.392 184.795,-54.392c93.029,-0 152.229,50.766 152.229,139.003l-0,77.192c-25.371,-26.514 -85.78,-56.644 -165.519,-56.644c-141.356,0 -241.436,86.802 -241.436,206.422Zm96.456,-1.209c-0,-73.705 61.616,-129.286 157.062,-129.286c94.237,-0 157.054,50.748 157.054,129.286c-0,76.122 -64.025,130.495 -155.846,130.495c-96.654,-0 -158.27,-57.998 -158.27,-130.495Z" style="fill-rule:nonzero;"/><rect x="2434.91" y="143.372" width="95.248" height="627.791" style="fill-rule:nonzero;"/><path d="M2975.85,127.674c-86.988,-0 -157.062,49.425 -187.264,106.116l-0,-90.418l-94.042,0l-0,627.791l95.248,0l-0,-381.595c-0,-103.852 66.449,-175.099 163.103,-175.099c85.78,-0 148.603,60.379 148.603,160.608l0,396.086l95.248,0l0,-392.463c0,-142.495 -74.751,-251.026 -220.896,-251.026Z" style="fill-rule:nonzero;"/></g></svg>